<?xml version="1.0" encoding="UTF-8" standalone="no"?><svg xmlns="http://www.w3.org/2000/svg" xmlns:xlink="http://www.w3.org/1999/xlink" contentScriptType="application/ecmascript" contentStyleType="text/css" height="397px" preserveAspectRatio="none" style="width:475px;height:397px;" version="1.1" viewBox="0 0 475 397" width="475px" zoomAndPan="magnify"><defs><filter height="300%" id="f6gh6tx564a4w" width="300%" x="-1" y="-1"><feGaussianBlur result="blurOut" stdDeviation="2.0"/><feColorMatrix in="blurOut" result="blurOut2" type="matrix" values="0 0 0 0 0 0 0 0 0 0 0 0 0 0 0 0 0 0 .4 0"/><feOffset dx="4.0" dy="4.0" in="blurOut2" result="blurOut3"/><feBlend in="SourceGraphic" in2="blurOut3" mode="normal"/></filter></defs><g><!--MD5=[d5388a52705c40711453c6082f8d33bb]
cluster monolithic--><polygon fill="#FFFFFF" filter="url(#f6gh6tx564a4w)" points="41,204,128,204,135,226.2969,458,226.2969,458,390,41,390,41,204" style="stroke:#000000;stroke-width:1.5;"/><line style="stroke:#000000;stroke-width:1.5;" x1="41" x2="135" y1="226.2969" y2="226.2969"/><text fill="#000000" font-family="sans-serif" font-size="14" font-weight="bold" lengthAdjust="spacingAndGlyphs" textLength="81" x="45" y="218.9951">monolithic</text><!--MD5=[fee662a292a0353a69bd162820bae93b]
entity User--><rect fill="#FF0000" filter="url(#f6gh6tx564a4w)" height="46.2969" style="stroke:#A80036;stroke-width:1.5;" width="72" x="49" y="231"/><rect fill="#FF0000" height="10" style="stroke:#A80036;stroke-width:1.5;" width="15" x="101" y="236"/><rect fill="#FF0000" height="2" style="stroke:#A80036;stroke-width:1.5;" width="4" x="99" y="238"/><rect fill="#FF0000" height="2" style="stroke:#A80036;stroke-width:1.5;" width="4" x="99" y="242"/><text fill="#000000" font-family="sans-serif" font-size="14" lengthAdjust="spacingAndGlyphs" textLength="32" x="64" y="263.9951">User</text><!--MD5=[f132b2f3f747496411cce4803ea62fc7]
entity SubDomain1--><rect fill="#FEFECE" filter="url(#f6gh6tx564a4w)" height="46.2969" style="stroke:#A80036;stroke-width:1.5;" width="129" x="156.5" y="231"/><rect fill="#FEFECE" height="10" style="stroke:#A80036;stroke-width:1.5;" width="15" x="265.5" y="236"/><rect fill="#FEFECE" height="2" style="stroke:#A80036;stroke-width:1.5;" width="4" x="263.5" y="238"/><rect fill="#FEFECE" height="2" style="stroke:#A80036;stroke-width:1.5;" width="4" x="263.5" y="242"/><text fill="#000000" font-family="sans-serif" font-size="14" lengthAdjust="spacingAndGlyphs" textLength="89" x="171.5" y="263.9951">SubDomain1</text><!--MD5=[92b62d50bfc84b6da0b68c90104cfc2a]
entity SubDomain2--><rect fill="#FEFECE" filter="url(#f6gh6tx564a4w)" height="46.2969" style="stroke:#A80036;stroke-width:1.5;" width="129" x="320.5" y="231"/><rect fill="#FEFECE" height="10" style="stroke:#A80036;stroke-width:1.5;" width="15" x="429.5" y="236"/><rect fill="#FEFECE" height="2" style="stroke:#A80036;stroke-width:1.5;" width="4" x="427.5" y="238"/><rect fill="#FEFECE" height="2" style="stroke:#A80036;stroke-width:1.5;" width="4" x="427.5" y="242"/><text fill="#000000" font-family="sans-serif" font-size="14" lengthAdjust="spacingAndGlyphs" textLength="89" x="335.5" y="263.9951">SubDomain2</text><!--MD5=[f9ba5bf973e7832d2ce5ed59077b93f7]
entity DB--><path d="M200.5,347 C200.5,337 221,337 221,337 C221,337 241.5,337 241.5,347 L241.5,372.2969 C241.5,382.2969 221,382.2969 221,382.2969 C221,382.2969 200.5,382.2969 200.5,372.2969 L200.5,347 " fill="#FEFECE" filter="url(#f6gh6tx564a4w)" style="stroke:#000000;stroke-width:1.5;"/><path d="M200.5,347 C200.5,357 221,357 221,357 C221,357 241.5,357 241.5,347 " fill="none" style="stroke:#000000;stroke-width:1.5;"/><text fill="#000000" font-family="sans-serif" font-size="14" lengthAdjust="spacingAndGlyphs" textLength="21" x="210.5" y="373.9951">DB</text><!--MD5=[0ba5ee7700168656dc1b457c6fe9fdac]
entity Client--><rect fill="#FEFECE" filter="url(#f6gh6tx564a4w)" height="46.2969" style="stroke:#A80036;stroke-width:1.5;" width="79" x="184.5" y="7"/><rect fill="#FEFECE" height="10" style="stroke:#A80036;stroke-width:1.5;" width="15" x="243.5" y="12"/><rect fill="#FEFECE" height="2" style="stroke:#A80036;stroke-width:1.5;" width="4" x="241.5" y="14"/><rect fill="#FEFECE" height="2" style="stroke:#A80036;stroke-width:1.5;" width="4" x="241.5" y="18"/><text fill="#000000" font-family="sans-serif" font-size="14" lengthAdjust="spacingAndGlyphs" textLength="39" x="199.5" y="39.9951">Client</text><!--MD5=[ca9fb7b5a58437205af67863be51a2c6]
entity UserAndAuthAPI--><ellipse cx="62" cy="142" fill="#FF0000" filter="url(#f6gh6tx564a4w)" rx="8" ry="8" style="stroke:#A80036;stroke-width:1.5;"/><text fill="#000000" font-family="sans-serif" font-size="14" lengthAdjust="spacingAndGlyphs" textLength="112" x="6" y="171.9951">UserAndAuthAPI</text><!--MD5=[bbc5ec89a611c5b0ee9a1d3794aa5ac9]
entity SubDomain1API--><ellipse cx="224" cy="142" fill="#FEFECE" filter="url(#f6gh6tx564a4w)" rx="8" ry="8" style="stroke:#A80036;stroke-width:1.5;"/><text fill="#000000" font-family="sans-serif" font-size="14" lengthAdjust="spacingAndGlyphs" textLength="110" x="169" y="171.9951">SubDomain1API</text><!--MD5=[a18d6e9722786d16ca4d214c2456f456]
entity SubDomain2API--><ellipse cx="385" cy="142" fill="#FEFECE" filter="url(#f6gh6tx564a4w)" rx="8" ry="8" style="stroke:#A80036;stroke-width:1.5;"/><text fill="#000000" font-family="sans-serif" font-size="14" lengthAdjust="spacingAndGlyphs" textLength="110" x="330" y="171.9951">SubDomain2API</text><!--MD5=[4710541f871256ce1eea06b363932d7a]
link Client to UserAndAuthAPI--><path d="M190.4335,53.2065 C154.8367,77.8166 100.369,115.4733 75.3767,132.7519 " fill="none" id="Client-to-UserAndAuthAPI" style="stroke:#A80036;stroke-width:1.0;"/><polygon fill="#A80036" points="71.0642,135.7334,80.7419,133.9053,75.1769,132.8899,76.1923,127.3249,71.0642,135.7334" style="stroke:#A80036;stroke-width:1.0;"/><!--MD5=[ee940a029266980325d5f02b3a744c22]
link Client to SubDomain1API--><path d="M224,53.2065 C224,75.504 224,108.5112 224,127.3687 " fill="none" id="Client-to-SubDomain1API" style="stroke:#A80036;stroke-width:1.0;"/><polygon fill="#A80036" points="224,132.7393,228,123.7393,224,127.7393,220,123.7393,224,132.7393" style="stroke:#A80036;stroke-width:1.0;"/><!--MD5=[a03a1f3f075ba5680f11d846c89e0351]
link Client to SubDomain2API--><path d="M257.3593,53.2065 C292.7364,77.8166 346.8678,115.4733 371.7059,132.7519 " fill="none" id="Client-to-SubDomain2API" style="stroke:#A80036;stroke-width:1.0;"/><polygon fill="#A80036" points="375.9917,135.7334,370.8877,127.3103,371.8871,132.8781,366.3193,133.8775,375.9917,135.7334" style="stroke:#A80036;stroke-width:1.0;"/><!--MD5=[205578419d66bcb87328ad13c86addb6]
link UserAndAuthAPI to User--><path d="M63.8822,151.1654 C67.4226,168.4059 75.172,206.1419 80.2339,230.7914 " fill="none" id="UserAndAuthAPI-User" style="stroke:#A80036;stroke-width:1.0;"/><!--MD5=[d1ac19ce0b4b6bd409bd13dc43406696]
link SubDomain1API to SubDomain1--><path d="M223.7545,151.1654 C223.2927,168.4059 222.2819,206.1419 221.6217,230.7914 " fill="none" id="SubDomain1API-SubDomain1" style="stroke:#A80036;stroke-width:1.0;"/><!--MD5=[9f1d50956daf4c693c10a707a1e42c31]
link SubDomain2API to SubDomain2--><path d="M385,151.1654 C385,168.4059 385,206.1419 385,230.7914 " fill="none" id="SubDomain2API-SubDomain2" style="stroke:#A80036;stroke-width:1.0;"/><!--MD5=[fee51c838fc779d5f170ef107a6d5861]
link User to DB--><path d="M114.8458,277.1524 C139.2842,296.1101 173.4434,322.6087 196.3488,340.3772 " fill="none" id="User-to-DB" style="stroke:#A80036;stroke-width:1.0;"/><polygon fill="#A80036" points="200.4899,343.5896,195.8304,334.9126,196.5392,340.5249,190.927,341.2337,200.4899,343.5896" style="stroke:#A80036;stroke-width:1.0;"/><!--MD5=[fa817a91d11aa4bf7fb5b896ffa4a156]
link SubDomain1 to DB--><path d="M221,277.1524 C221,293.2034 221,314.6601 221,331.647 " fill="none" id="SubDomain1-to-DB" style="stroke:#A80036;stroke-width:1.0;"/><polygon fill="#A80036" points="221,336.7643,225,327.7643,221,331.7643,217,327.7643,221,336.7643" style="stroke:#A80036;stroke-width:1.0;"/><!--MD5=[687c1e20c61236cb93dfb06a781236bd]
link SubDomain2 to DB--><path d="M349.0095,277.1524 C317.8631,297.1887 273.6227,325.6482 246.1487,343.322 " fill="none" id="SubDomain2-to-DB" style="stroke:#A80036;stroke-width:1.0;"/><polygon fill="#A80036" points="241.8878,346.063,251.621,344.5579,246.0929,343.3579,247.2928,337.8298,241.8878,346.063" style="stroke:#A80036;stroke-width:1.0;"/><!--MD5=[8d1a6a0a1e0bbae5dc1e4bcbe5cd60b0]
@startuml
[Client]

interface UserAndAuthAPI #red
interface SubDomain1API
interface SubDomain2API

package monolithic {
  component [User] #red
  component [SubDomain1]
  component [SubDomain2]
  database DB
}

Client - ->UserAndAuthAPI
Client - -> SubDomain1API
Client - -> SubDomain2API

UserAndAuthAPI - - User
SubDomain1API - - SubDomain1
SubDomain2API - - SubDomain2

User - -> DB
SubDomain1 - -> DB
SubDomain2 - -> DB
@enduml

PlantUML version 1.2020.22(Sun Dec 06 09:36:27 UTC 2020)
(GPL source distribution)
Java Runtime: OpenJDK Runtime Environment
JVM: OpenJDK 64-Bit Server VM
Default Encoding: UTF-8
Language: en
Country: US
--></g></svg>