<?xml version="1.0" encoding="UTF-8" standalone="no"?><svg xmlns="http://www.w3.org/2000/svg" xmlns:xlink="http://www.w3.org/1999/xlink" contentScriptType="application/ecmascript" contentStyleType="text/css" height="516px" preserveAspectRatio="none" style="width:363px;height:516px;" version="1.1" viewBox="0 0 363 516" width="363px" zoomAndPan="magnify"><defs><filter height="300%" id="f11anv8poiydrz" width="300%" x="-1" y="-1"><feGaussianBlur result="blurOut" stdDeviation="2.0"/><feColorMatrix in="blurOut" result="blurOut2" type="matrix" values="0 0 0 0 0 0 0 0 0 0 0 0 0 0 0 0 0 0 .4 0"/><feOffset dx="4.0" dy="4.0" in="blurOut2" result="blurOut3"/><feBlend in="SourceGraphic" in2="blurOut3" mode="normal"/></filter></defs><g><!--MD5=[17be2db854a9b4c9c7f1d0e874109bc4]
cluster UAA--><polygon fill="#FFFFFF" filter="url(#f11anv8poiydrz)" points="16,260,55,260,62,282.2969,104,282.2969,104,509,16,509,16,260" style="stroke:#000000;stroke-width:1.5;"/><line style="stroke:#000000;stroke-width:1.5;" x1="16" x2="62" y1="282.2969" y2="282.2969"/><text fill="#000000" font-family="sans-serif" font-size="14" font-weight="bold" lengthAdjust="spacingAndGlyphs" textLength="33" x="20" y="274.9951">UAA</text><!--MD5=[694f54aa890631db6f50c9283d3664df]
cluster Laravel--><polygon fill="#FFFFFF" filter="url(#f11anv8poiydrz)" points="122,260,185,260,192,282.2969,238,282.2969,238,509,122,509,122,260" style="stroke:#000000;stroke-width:1.5;"/><line style="stroke:#000000;stroke-width:1.5;" x1="122" x2="192" y1="282.2969" y2="282.2969"/><text fill="#000000" font-family="sans-serif" font-size="14" font-weight="bold" lengthAdjust="spacingAndGlyphs" textLength="57" x="126" y="274.9951">Laravel</text><!--MD5=[3ed2d37569a438542c9eab5b27371965]
cluster Spring--><polygon fill="#FFFFFF" filter="url(#f11anv8poiydrz)" points="256,260,313,260,320,282.2969,346,282.2969,346,341,256,341,256,260" style="stroke:#000000;stroke-width:1.5;"/><line style="stroke:#000000;stroke-width:1.5;" x1="256" x2="320" y1="282.2969" y2="282.2969"/><text fill="#000000" font-family="sans-serif" font-size="14" font-weight="bold" lengthAdjust="spacingAndGlyphs" textLength="51" x="260" y="274.9951">Spring</text><!--MD5=[fee662a292a0353a69bd162820bae93b]
entity User--><rect fill="#FEFECE" filter="url(#f11anv8poiydrz)" height="46.2969" style="stroke:#A80036;stroke-width:1.5;" width="72" x="24" y="287"/><rect fill="#FEFECE" height="10" style="stroke:#A80036;stroke-width:1.5;" width="15" x="76" y="292"/><rect fill="#FEFECE" height="2" style="stroke:#A80036;stroke-width:1.5;" width="4" x="74" y="294"/><rect fill="#FEFECE" height="2" style="stroke:#A80036;stroke-width:1.5;" width="4" x="74" y="298"/><text fill="#000000" font-family="sans-serif" font-size="14" lengthAdjust="spacingAndGlyphs" textLength="32" x="39" y="319.9951">User</text><!--MD5=[9b906e862fb73d216c5990ef8f036b21]
entity UAADB--><path d="M25.5,466 C25.5,456 60,456 60,456 C60,456 94.5,456 94.5,466 L94.5,491.2969 C94.5,501.2969 60,501.2969 60,501.2969 C60,501.2969 25.5,501.2969 25.5,491.2969 L25.5,466 " fill="#FEFECE" filter="url(#f11anv8poiydrz)" style="stroke:#000000;stroke-width:1.5;"/><path d="M25.5,466 C25.5,476 60,476 60,476 C60,476 94.5,476 94.5,466 " fill="none" style="stroke:#000000;stroke-width:1.5;"/><text fill="#000000" font-family="sans-serif" font-size="14" lengthAdjust="spacingAndGlyphs" textLength="49" x="35.5" y="492.9951">UAADB</text><!--MD5=[9b981568ba0da6c0a2268c9f5cdbbac2]
entity Example--><rect fill="#FEFECE" filter="url(#f11anv8poiydrz)" height="46.2969" style="stroke:#A80036;stroke-width:1.5;" width="98" x="131" y="287"/><rect fill="#FEFECE" height="10" style="stroke:#A80036;stroke-width:1.5;" width="15" x="209" y="292"/><rect fill="#FEFECE" height="2" style="stroke:#A80036;stroke-width:1.5;" width="4" x="207" y="294"/><rect fill="#FEFECE" height="2" style="stroke:#A80036;stroke-width:1.5;" width="4" x="207" y="298"/><text fill="#000000" font-family="sans-serif" font-size="14" lengthAdjust="spacingAndGlyphs" textLength="58" x="146" y="319.9951">Example</text><!--MD5=[40b41a7900c88759f25f8c12b9daeead]
entity ExampleDB--><path d="M130.5,466 C130.5,456 180,456 180,456 C180,456 229.5,456 229.5,466 L229.5,491.2969 C229.5,501.2969 180,501.2969 180,501.2969 C180,501.2969 130.5,501.2969 130.5,491.2969 L130.5,466 " fill="#FEFECE" filter="url(#f11anv8poiydrz)" style="stroke:#000000;stroke-width:1.5;"/><path d="M130.5,466 C130.5,476 180,476 180,476 C180,476 229.5,476 229.5,466 " fill="none" style="stroke:#000000;stroke-width:1.5;"/><text fill="#000000" font-family="sans-serif" font-size="14" lengthAdjust="spacingAndGlyphs" textLength="79" x="140.5" y="492.9951">ExampleDB</text><!--MD5=[99a17dbcb4d2f9f00ed1e17928fffd71]
entity Hello--><rect fill="#FEFECE" filter="url(#f11anv8poiydrz)" height="46.2969" style="stroke:#A80036;stroke-width:1.5;" width="74" x="264" y="287"/><rect fill="#FEFECE" height="10" style="stroke:#A80036;stroke-width:1.5;" width="15" x="318" y="292"/><rect fill="#FEFECE" height="2" style="stroke:#A80036;stroke-width:1.5;" width="4" x="316" y="294"/><rect fill="#FEFECE" height="2" style="stroke:#A80036;stroke-width:1.5;" width="4" x="316" y="298"/><text fill="#000000" font-family="sans-serif" font-size="14" lengthAdjust="spacingAndGlyphs" textLength="34" x="279" y="319.9951">Hello</text><!--MD5=[0ba5ee7700168656dc1b457c6fe9fdac]
entity Client--><rect fill="#FEFECE" filter="url(#f11anv8poiydrz)" height="62.5938" style="stroke:#A80036;stroke-width:1.5;" width="83" x="138.5" y="7"/><rect fill="#FEFECE" height="10" style="stroke:#A80036;stroke-width:1.5;" width="15" x="201.5" y="12"/><rect fill="#FEFECE" height="2" style="stroke:#A80036;stroke-width:1.5;" width="4" x="199.5" y="14"/><rect fill="#FEFECE" height="2" style="stroke:#A80036;stroke-width:1.5;" width="4" x="199.5" y="18"/><text fill="#000000" font-family="sans-serif" font-size="14" font-style="italic" lengthAdjust="spacingAndGlyphs" textLength="43" x="153.5" y="39.9951">«curl»</text><text fill="#000000" font-family="sans-serif" font-size="14" lengthAdjust="spacingAndGlyphs" textLength="39" x="155.5" y="56.292">Client</text><!--MD5=[2a4ce279036dab9c9f064a81629a2ec2]
entity UAAAPI--><ellipse cx="89" cy="176" fill="#FEFECE" filter="url(#f11anv8poiydrz)" rx="8" ry="8" style="stroke:#A80036;stroke-width:1.5;"/><text fill="#000000" font-family="sans-serif" font-size="14" lengthAdjust="spacingAndGlyphs" textLength="49" x="64.5" y="205.9951">UAAAPI</text><text fill="#000000" font-family="sans-serif" font-size="14" font-style="italic" lengthAdjust="spacingAndGlyphs" textLength="54" x="62" y="155.6982">«9999»</text><!--MD5=[41a572af8013b4746e6abfe79a985c60]
entity ExampleAPI--><ellipse cx="180" cy="176" fill="#FEFECE" filter="url(#f11anv8poiydrz)" rx="8" ry="8" style="stroke:#A80036;stroke-width:1.5;"/><text fill="#000000" font-family="sans-serif" font-size="14" lengthAdjust="spacingAndGlyphs" textLength="79" x="140.5" y="205.9951">ExampleAPI</text><text fill="#000000" font-family="sans-serif" font-size="14" font-style="italic" lengthAdjust="spacingAndGlyphs" textLength="54" x="153" y="155.6982">«8000»</text><!--MD5=[282a9d3cbda470b98df05e7b0400bd6a]
entity HelloAPI--><ellipse cx="271" cy="176" fill="#FEFECE" filter="url(#f11anv8poiydrz)" rx="8" ry="8" style="stroke:#A80036;stroke-width:1.5;"/><text fill="#000000" font-family="sans-serif" font-size="14" lengthAdjust="spacingAndGlyphs" textLength="55" x="243.5" y="205.9951">HelloAPI</text><text fill="#000000" font-family="sans-serif" font-size="14" font-style="italic" lengthAdjust="spacingAndGlyphs" textLength="54" x="244" y="155.6982">«8080»</text><!--MD5=[5ff5c2dc27aad651e3dc66e0357c09d0]
link Client to UAAAPI--><path d="M159.1228,70.0453 C139.7232,99.3578 111.778,141.5827 97.7431,162.7892 " fill="none" id="Client-to-UAAAPI" style="stroke:#FF0000;stroke-width:1.0;"/><polygon fill="#FF0000" points="94.9675,166.9832,103.2703,161.6857,97.727,162.8137,96.5991,157.2704,94.9675,166.9832" style="stroke:#FF0000;stroke-width:1.0;"/><text fill="#000000" font-family="sans-serif" font-size="13" lengthAdjust="spacingAndGlyphs" textLength="12" x="138" y="113.0669">①</text><!--MD5=[8ec8efb02a922b2f0b48d71a15020a31]
link Client to ExampleAPI--><path d="M180,70.0453 C180,98.9898 180,140.5247 180,161.9808 " fill="none" id="Client-to-ExampleAPI" style="stroke:#FF0000;stroke-width:1.0;"/><polygon fill="#FF0000" points="180,166.9832,184,157.9832,180,161.9832,176,157.9832,180,166.9832" style="stroke:#FF0000;stroke-width:1.0;"/><text fill="#000000" font-family="sans-serif" font-size="13" lengthAdjust="spacingAndGlyphs" textLength="12" x="181" y="113.0669">②</text><!--MD5=[19ae72e436fee83efd2bcae9e5cc940e]
link Client to HelloAPI--><path d="M200.8772,70.0453 C220.2768,99.3578 248.222,141.5827 262.2569,162.7892 " fill="none" id="Client-to-HelloAPI" style="stroke:#A80036;stroke-width:1.0;"/><polygon fill="#A80036" points="265.0325,166.9832,263.4009,157.2704,262.273,162.8137,256.7297,161.6857,265.0325,166.9832" style="stroke:#A80036;stroke-width:1.0;"/><!--MD5=[055c77816274c8a05f5e39f9cbc72bb9]
link UAAAPI to User--><path d="M87.0067,185.2104 C82.5151,205.9649 71.4894,256.911 64.9995,286.899 " fill="none" id="UAAAPI-User" style="stroke:#A80036;stroke-width:1.0;"/><!--MD5=[b647c760f1fc8cd695bb543ac0d84c71]
link ExampleAPI to Example--><path d="M180,185.2104 C180,205.9649 180,256.911 180,286.899 " fill="none" id="ExampleAPI-Example" style="stroke:#A80036;stroke-width:1.0;"/><!--MD5=[06fd46778d2eb463ceb75e2975e305f9]
link HelloAPI to Hello--><path d="M273.062,185.2104 C277.7086,205.9649 289.1144,256.911 295.8281,286.899 " fill="none" id="HelloAPI-Hello" style="stroke:#A80036;stroke-width:1.0;"/><!--MD5=[ad1d4a81a5b64d87fe40592341ebdfe6]
reverse link HelloAPI to Example--><path d="M261.8707,189.4432 C246.3816,212.2513 214.7802,258.7852 195.688,286.899 " fill="none" id="HelloAPI-backto-Example" style="stroke:#FF0000;stroke-width:1.0;"/><polygon fill="#FF0000" points="264.7452,185.2104,256.3799,190.4087,261.9362,189.3468,262.9982,194.9031,264.7452,185.2104" style="stroke:#FF0000;stroke-width:1.0;"/><text fill="#000000" font-family="sans-serif" font-size="13" lengthAdjust="spacingAndGlyphs" textLength="12" x="229" y="248.0669">③</text><!--MD5=[947ec55cf225f0052bb56e801387bc47]
reverse link UAAAPI to Example--><path d="M98.1293,189.4432 C113.6184,212.2513 145.2198,258.7852 164.312,286.899 " fill="none" id="UAAAPI-backto-Example" style="stroke:#FF0000;stroke-width:1.0;"/><polygon fill="#FF0000" points="95.2548,185.2104,97.0018,194.9031,98.0638,189.3468,103.6201,190.4087,95.2548,185.2104" style="stroke:#FF0000;stroke-width:1.0;"/><text fill="#000000" font-family="sans-serif" font-size="13" lengthAdjust="spacingAndGlyphs" textLength="12" x="140" y="248.0669">④</text><!--MD5=[739d4777a863a73b8de3dee2fefc6aef]
link User to UAADB--><path d="M60,333.0759 C60,363.7904 60,418.0394 60,450.8897 " fill="none" id="User-to-UAADB" style="stroke:#A80036;stroke-width:1.0;"/><polygon fill="#A80036" points="60,455.9713,64,446.9713,60,450.9713,56,446.9713,60,455.9713" style="stroke:#A80036;stroke-width:1.0;"/><!--MD5=[c1bc06f9a6739532ac6e60e188d48dae]
link Example to ExampleDB--><path d="M180,333.0759 C180,363.7904 180,418.0394 180,450.8897 " fill="none" id="Example-to-ExampleDB" style="stroke:#A80036;stroke-width:1.0;"/><polygon fill="#A80036" points="180,455.9713,184,446.9713,180,450.9713,176,446.9713,180,455.9713" style="stroke:#A80036;stroke-width:1.0;"/><!--MD5=[0ad126994d82ac216bf47eeb452f549d]
@startuml
component [Client] <<curl>>

interface UAAAPI <<9999>>
interface ExampleAPI <<8000>>
interface HelloAPI <<8080>>

package UAA {
  component [User]
  database UAADB
}

package Laravel{
  component [Example]
  database ExampleDB
}

package Spring{
  component [Hello]
}

Client - -> UAAAPI #red: ①

Client - -> ExampleAPI #red: ②
Client - -> HelloAPI

UAAAPI - - User
ExampleAPI - - Example
HelloAPI - - Hello

Example -left-> HelloAPI #red: ③
Example -left-> UAAAPI #red: ④ 

User - -> UAADB
Example - -> ExampleDB
@enduml

PlantUML version 1.2020.22(Sun Dec 06 09:36:27 UTC 2020)
(GPL source distribution)
Java Runtime: OpenJDK Runtime Environment
JVM: OpenJDK 64-Bit Server VM
Default Encoding: UTF-8
Language: en
Country: US
--></g></svg>