<?xml version="1.0" encoding="UTF-8" standalone="no"?><svg xmlns="http://www.w3.org/2000/svg" xmlns:xlink="http://www.w3.org/1999/xlink" contentScriptType="application/ecmascript" contentStyleType="text/css" height="397px" preserveAspectRatio="none" style="width:477px;height:397px;" version="1.1" viewBox="0 0 477 397" width="477px" zoomAndPan="magnify"><defs><filter height="300%" id="fwj6v6540hg82" width="300%" x="-1" y="-1"><feGaussianBlur result="blurOut" stdDeviation="2.0"/><feColorMatrix in="blurOut" result="blurOut2" type="matrix" values="0 0 0 0 0 0 0 0 0 0 0 0 0 0 0 0 0 0 .4 0"/><feOffset dx="4.0" dy="4.0" in="blurOut2" result="blurOut3"/><feBlend in="SourceGraphic" in2="blurOut3" mode="normal"/></filter></defs><g><!--MD5=[17be2db854a9b4c9c7f1d0e874109bc4]
cluster UAA--><polygon fill="#FFFFFF" filter="url(#fwj6v6540hg82)" points="18,204,57,204,64,226.2969,106,226.2969,106,390,18,390,18,204" style="stroke:#000000;stroke-width:1.5;"/><line style="stroke:#000000;stroke-width:1.5;" x1="18" x2="64" y1="226.2969" y2="226.2969"/><text fill="#000000" font-family="sans-serif" font-size="14" font-weight="bold" lengthAdjust="spacingAndGlyphs" textLength="33" x="22" y="218.9951">UAA</text><!--MD5=[4285b3562e0135bc5224bc5d730ba04a]
cluster Microservice1--><polygon fill="#FFFFFF" filter="url(#fwj6v6540hg82)" points="150,204,267,204,274,226.2969,296,226.2969,296,390,150,390,150,204" style="stroke:#000000;stroke-width:1.5;"/><line style="stroke:#000000;stroke-width:1.5;" x1="150" x2="274" y1="226.2969" y2="226.2969"/><text fill="#000000" font-family="sans-serif" font-size="14" font-weight="bold" lengthAdjust="spacingAndGlyphs" textLength="111" x="154" y="218.9951">Microservice1</text><!--MD5=[02a1909a330f73f043b3619713a34f54]
cluster Microservice2--><polygon fill="#FFFFFF" filter="url(#fwj6v6540hg82)" points="314,204,431,204,438,226.2969,460,226.2969,460,390,314,390,314,204" style="stroke:#000000;stroke-width:1.5;"/><line style="stroke:#000000;stroke-width:1.5;" x1="314" x2="438" y1="226.2969" y2="226.2969"/><text fill="#000000" font-family="sans-serif" font-size="14" font-weight="bold" lengthAdjust="spacingAndGlyphs" textLength="111" x="318" y="218.9951">Microservice2</text><!--MD5=[fee662a292a0353a69bd162820bae93b]
entity User--><rect fill="#FF0000" filter="url(#fwj6v6540hg82)" height="46.2969" style="stroke:#A80036;stroke-width:1.5;" width="72" x="26" y="231"/><rect fill="#FF0000" height="10" style="stroke:#A80036;stroke-width:1.5;" width="15" x="78" y="236"/><rect fill="#FF0000" height="2" style="stroke:#A80036;stroke-width:1.5;" width="4" x="76" y="238"/><rect fill="#FF0000" height="2" style="stroke:#A80036;stroke-width:1.5;" width="4" x="76" y="242"/><text fill="#000000" font-family="sans-serif" font-size="14" lengthAdjust="spacingAndGlyphs" textLength="32" x="41" y="263.9951">User</text><!--MD5=[9b906e862fb73d216c5990ef8f036b21]
entity UAADB--><path d="M27.5,347 C27.5,337 62,337 62,337 C62,337 96.5,337 96.5,347 L96.5,372.2969 C96.5,382.2969 62,382.2969 62,382.2969 C62,382.2969 27.5,382.2969 27.5,372.2969 L27.5,347 " fill="#FEFECE" filter="url(#fwj6v6540hg82)" style="stroke:#000000;stroke-width:1.5;"/><path d="M27.5,347 C27.5,357 62,357 62,357 C62,357 96.5,357 96.5,347 " fill="none" style="stroke:#000000;stroke-width:1.5;"/><text fill="#000000" font-family="sans-serif" font-size="14" lengthAdjust="spacingAndGlyphs" textLength="49" x="37.5" y="373.9951">UAADB</text><!--MD5=[f132b2f3f747496411cce4803ea62fc7]
entity SubDomain1--><rect fill="#FEFECE" filter="url(#fwj6v6540hg82)" height="46.2969" style="stroke:#A80036;stroke-width:1.5;" width="129" x="158.5" y="231"/><rect fill="#FEFECE" height="10" style="stroke:#A80036;stroke-width:1.5;" width="15" x="267.5" y="236"/><rect fill="#FEFECE" height="2" style="stroke:#A80036;stroke-width:1.5;" width="4" x="265.5" y="238"/><rect fill="#FEFECE" height="2" style="stroke:#A80036;stroke-width:1.5;" width="4" x="265.5" y="242"/><text fill="#000000" font-family="sans-serif" font-size="14" lengthAdjust="spacingAndGlyphs" textLength="89" x="173.5" y="263.9951">SubDomain1</text><!--MD5=[9b22beae8ca16d08e616c8067593268e]
entity MS1DB--><path d="M187.5,347 C187.5,337 223,337 223,337 C223,337 258.5,337 258.5,347 L258.5,372.2969 C258.5,382.2969 223,382.2969 223,382.2969 C223,382.2969 187.5,382.2969 187.5,372.2969 L187.5,347 " fill="#FEFECE" filter="url(#fwj6v6540hg82)" style="stroke:#000000;stroke-width:1.5;"/><path d="M187.5,347 C187.5,357 223,357 223,357 C223,357 258.5,357 258.5,347 " fill="none" style="stroke:#000000;stroke-width:1.5;"/><text fill="#000000" font-family="sans-serif" font-size="14" lengthAdjust="spacingAndGlyphs" textLength="51" x="197.5" y="373.9951">MS1DB</text><!--MD5=[92b62d50bfc84b6da0b68c90104cfc2a]
entity SubDomain2--><rect fill="#FEFECE" filter="url(#fwj6v6540hg82)" height="46.2969" style="stroke:#A80036;stroke-width:1.5;" width="129" x="322.5" y="231"/><rect fill="#FEFECE" height="10" style="stroke:#A80036;stroke-width:1.5;" width="15" x="431.5" y="236"/><rect fill="#FEFECE" height="2" style="stroke:#A80036;stroke-width:1.5;" width="4" x="429.5" y="238"/><rect fill="#FEFECE" height="2" style="stroke:#A80036;stroke-width:1.5;" width="4" x="429.5" y="242"/><text fill="#000000" font-family="sans-serif" font-size="14" lengthAdjust="spacingAndGlyphs" textLength="89" x="337.5" y="263.9951">SubDomain2</text><!--MD5=[62aeac27f994ded1efa7507280059977]
entity MS2DB--><path d="M351.5,347 C351.5,337 387,337 387,337 C387,337 422.5,337 422.5,347 L422.5,372.2969 C422.5,382.2969 387,382.2969 387,382.2969 C387,382.2969 351.5,382.2969 351.5,372.2969 L351.5,347 " fill="#FEFECE" filter="url(#fwj6v6540hg82)" style="stroke:#000000;stroke-width:1.5;"/><path d="M351.5,347 C351.5,357 387,357 387,357 C387,357 422.5,357 422.5,347 " fill="none" style="stroke:#000000;stroke-width:1.5;"/><text fill="#000000" font-family="sans-serif" font-size="14" lengthAdjust="spacingAndGlyphs" textLength="51" x="361.5" y="373.9951">MS2DB</text><!--MD5=[0ba5ee7700168656dc1b457c6fe9fdac]
entity Client--><rect fill="#FEFECE" filter="url(#fwj6v6540hg82)" height="46.2969" style="stroke:#A80036;stroke-width:1.5;" width="79" x="184.5" y="7"/><rect fill="#FEFECE" height="10" style="stroke:#A80036;stroke-width:1.5;" width="15" x="243.5" y="12"/><rect fill="#FEFECE" height="2" style="stroke:#A80036;stroke-width:1.5;" width="4" x="241.5" y="14"/><rect fill="#FEFECE" height="2" style="stroke:#A80036;stroke-width:1.5;" width="4" x="241.5" y="18"/><text fill="#000000" font-family="sans-serif" font-size="14" lengthAdjust="spacingAndGlyphs" textLength="39" x="199.5" y="39.9951">Client</text><!--MD5=[ca9fb7b5a58437205af67863be51a2c6]
entity UserAndAuthAPI--><ellipse cx="62" cy="142" fill="#FF0000" filter="url(#fwj6v6540hg82)" rx="8" ry="8" style="stroke:#A80036;stroke-width:1.5;"/><text fill="#000000" font-family="sans-serif" font-size="14" lengthAdjust="spacingAndGlyphs" textLength="112" x="6" y="171.9951">UserAndAuthAPI</text><!--MD5=[bbc5ec89a611c5b0ee9a1d3794aa5ac9]
entity SubDomain1API--><ellipse cx="224" cy="142" fill="#FEFECE" filter="url(#fwj6v6540hg82)" rx="8" ry="8" style="stroke:#A80036;stroke-width:1.5;"/><text fill="#000000" font-family="sans-serif" font-size="14" lengthAdjust="spacingAndGlyphs" textLength="110" x="169" y="171.9951">SubDomain1API</text><!--MD5=[a18d6e9722786d16ca4d214c2456f456]
entity SubDomain2API--><ellipse cx="386" cy="142" fill="#FEFECE" filter="url(#fwj6v6540hg82)" rx="8" ry="8" style="stroke:#A80036;stroke-width:1.5;"/><text fill="#000000" font-family="sans-serif" font-size="14" lengthAdjust="spacingAndGlyphs" textLength="110" x="331" y="171.9951">SubDomain2API</text><!--MD5=[4710541f871256ce1eea06b363932d7a]
link Client to UserAndAuthAPI--><path d="M190.4335,53.2065 C154.8367,77.8166 100.369,115.4733 75.3767,132.7519 " fill="none" id="Client-to-UserAndAuthAPI" style="stroke:#A80036;stroke-width:1.0;"/><polygon fill="#A80036" points="71.0642,135.7334,80.7419,133.9053,75.1769,132.8899,76.1923,127.3249,71.0642,135.7334" style="stroke:#A80036;stroke-width:1.0;"/><!--MD5=[ee940a029266980325d5f02b3a744c22]
link Client to SubDomain1API--><path d="M224,53.2065 C224,75.504 224,108.5112 224,127.3687 " fill="none" id="Client-to-SubDomain1API" style="stroke:#A80036;stroke-width:1.0;"/><polygon fill="#A80036" points="224,132.7393,228,123.7393,224,127.7393,220,123.7393,224,132.7393" style="stroke:#A80036;stroke-width:1.0;"/><!--MD5=[a03a1f3f075ba5680f11d846c89e0351]
link Client to SubDomain2API--><path d="M257.5665,53.2065 C293.1633,77.8166 347.631,115.4733 372.6233,132.7519 " fill="none" id="Client-to-SubDomain2API" style="stroke:#A80036;stroke-width:1.0;"/><polygon fill="#A80036" points="376.9358,135.7334,371.8077,127.3249,372.8231,132.8899,367.2581,133.9053,376.9358,135.7334" style="stroke:#A80036;stroke-width:1.0;"/><!--MD5=[205578419d66bcb87328ad13c86addb6]
link UserAndAuthAPI to User--><path d="M62,151.1654 C62,168.4059 62,206.1419 62,230.7914 " fill="none" id="UserAndAuthAPI-User" style="stroke:#A80036;stroke-width:1.0;"/><!--MD5=[d1ac19ce0b4b6bd409bd13dc43406696]
link SubDomain1API to SubDomain1--><path d="M223.9182,151.1654 C223.7642,168.4059 223.4273,206.1419 223.2072,230.7914 " fill="none" id="SubDomain1API-SubDomain1" style="stroke:#A80036;stroke-width:1.0;"/><!--MD5=[9f1d50956daf4c693c10a707a1e42c31]
link SubDomain2API to SubDomain2--><path d="M386.0818,151.1654 C386.2358,168.4059 386.5727,206.1419 386.7928,230.7914 " fill="none" id="SubDomain2API-SubDomain2" style="stroke:#A80036;stroke-width:1.0;"/><!--MD5=[739d4777a863a73b8de3dee2fefc6aef]
link User to UAADB--><path d="M62,277.1524 C62,293.2034 62,314.6601 62,331.647 " fill="none" id="User-to-UAADB" style="stroke:#A80036;stroke-width:1.0;"/><polygon fill="#A80036" points="62,336.7643,66,327.7643,62,331.7643,58,327.7643,62,336.7643" style="stroke:#A80036;stroke-width:1.0;"/><!--MD5=[f1352a32c4d2e554989dd77a0a051d7b]
link SubDomain1 to MS1DB--><path d="M223,277.1524 C223,293.2034 223,314.6601 223,331.647 " fill="none" id="SubDomain1-to-MS1DB" style="stroke:#A80036;stroke-width:1.0;"/><polygon fill="#A80036" points="223,336.7643,227,327.7643,223,331.7643,219,327.7643,223,336.7643" style="stroke:#A80036;stroke-width:1.0;"/><!--MD5=[6fcb7e0cc3b9d4a3ec74ddde1c22dabd]
link SubDomain2 to MS2DB--><path d="M387,277.1524 C387,293.2034 387,314.6601 387,331.647 " fill="none" id="SubDomain2-to-MS2DB" style="stroke:#A80036;stroke-width:1.0;"/><polygon fill="#A80036" points="387,336.7643,391,327.7643,387,331.7643,383,327.7643,387,336.7643" style="stroke:#A80036;stroke-width:1.0;"/><!--MD5=[a49d45cae1afa4a5bcafd6c62aa6ef46]
@startuml
[Client]

interface UserAndAuthAPI #red
interface SubDomain1API
interface SubDomain2API

package UAA {
  component [User] #red
  database UAADB
}

package Microservice1{
  component [SubDomain1]
  database MS1DB
}

package Microservice2{
  component [SubDomain2]
  database MS2DB
}

Client - -> UserAndAuthAPI
Client - -> SubDomain1API
Client - -> SubDomain2API

UserAndAuthAPI - - User
SubDomain1API - - SubDomain1
SubDomain2API - - SubDomain2

User - -> UAADB
SubDomain1 - -> MS1DB
SubDomain2 - -> MS2DB
@enduml

PlantUML version 1.2020.22(Sun Dec 06 09:36:27 UTC 2020)
(GPL source distribution)
Java Runtime: OpenJDK Runtime Environment
JVM: OpenJDK 64-Bit Server VM
Default Encoding: UTF-8
Language: en
Country: US
--></g></svg>