<?xml version="1.0" encoding="UTF-8" standalone="no"?><svg xmlns="http://www.w3.org/2000/svg" xmlns:xlink="http://www.w3.org/1999/xlink" contentScriptType="application/ecmascript" contentStyleType="text/css" height="1824px" preserveAspectRatio="none" style="width:1326px;height:1824px;" version="1.1" viewBox="0 0 1326 1824" width="1326px" zoomAndPan="magnify"><defs><filter height="300%" id="fvz6qbmnnnoqn" width="300%" x="-1" y="-1"><feGaussianBlur result="blurOut" stdDeviation="4.0"/><feColorMatrix in="blurOut" result="blurOut2" type="matrix" values="0 0 0 0 0 0 0 0 0 0 0 0 0 0 0 0 0 0 .4 0"/><feOffset dx="8.0" dy="8.0" in="blurOut2" result="blurOut3"/><feBlend in="SourceGraphic" in2="blurOut3" mode="normal"/></filter></defs><g><!--MD5=[694f54aa890631db6f50c9283d3664df]
cluster Laravel--><polygon fill="#FFFFFF" filter="url(#fvz6qbmnnnoqn)" points="32,12,146,12,160,56.9766,888,56.9766,888,1810,32,1810,32,12" style="stroke:#000000;stroke-width:3.0;"/><line style="stroke:#000000;stroke-width:3.0;" x1="32" x2="160" y1="56.9766" y2="56.9766"/><text fill="#000000" font-family="sans-serif" font-size="28" font-weight="bold" lengthAdjust="spacing" textLength="102" x="40" y="43.0703">Laravel</text><!--MD5=[17be2db854a9b4c9c7f1d0e874109bc4]
cluster UAA--><polygon fill="#FFFFFF" filter="url(#fvz6qbmnnnoqn)" points="936,875,1008,875,1022,919.9766,1240,919.9766,1240,1085,936,1085,936,875" style="stroke:#000000;stroke-width:3.0;"/><line style="stroke:#000000;stroke-width:3.0;" x1="936" x2="1022" y1="919.9766" y2="919.9766"/><text fill="#000000" font-family="sans-serif" font-size="28" font-weight="bold" lengthAdjust="spacing" textLength="60" x="944" y="906.0703">UAA</text><!--MD5=[3ed2d37569a438542c9eab5b27371965]
cluster Spring--><polygon fill="#FFFFFF" filter="url(#fvz6qbmnnnoqn)" points="936,313,1040,313,1054,357.9766,1292,357.9766,1292,523,936,523,936,313" style="stroke:#000000;stroke-width:3.0;"/><line style="stroke:#000000;stroke-width:3.0;" x1="936" x2="1054" y1="357.9766" y2="357.9766"/><text fill="#000000" font-family="sans-serif" font-size="28" font-weight="bold" lengthAdjust="spacing" textLength="92" x="944" y="344.0703">Spring</text><!--MD5=[1d5ada4f73daf436a06bf72031712b29]
class HelloController--><rect codeLine="4" fill="#FEFECE" filter="url(#fvz6qbmnnnoqn)" height="147.8203" id="HelloController" style="stroke:#A80036;stroke-width:3.0;" width="310" x="493" y="82"/><ellipse cx="557.2" cy="114" fill="#ADD1B2" rx="22" ry="22" style="stroke:#A80036;stroke-width:2.0;"/><path d="M562.1463,126.2861 Q560.9842,126.8838 559.7059,127.1826 Q558.4275,127.4814 557.0164,127.4814 Q552.0027,127.4814 549.3631,124.1777 Q546.7234,120.874 546.7234,114.6318 Q546.7234,108.373 549.3631,105.0693 Q552.0027,101.7656 557.0164,101.7656 Q558.4275,101.7656 559.7225,102.0645 Q561.0174,102.3633 562.1463,102.9609 L562.1463,108.4063 Q560.8846,107.2441 559.6976,106.7046 Q558.5105,106.165 557.2488,106.165 Q554.5594,106.165 553.1897,108.2983 Q551.8201,110.4316 551.8201,114.6318 Q551.8201,118.8154 553.1897,120.9487 Q554.5594,123.082 557.2488,123.082 Q558.5105,123.082 559.6976,122.5425 Q560.8846,122.0029 562.1463,120.8408 Z " fill="#000000"/><text fill="#000000" font-family="sans-serif" font-size="24" lengthAdjust="spacing" textLength="170" x="592.8" y="123.0703">HelloController</text><line style="stroke:#A80036;stroke-width:3.0;" x1="495" x2="801" y1="146" y2="146"/><rect fill="none" height="12" style="stroke:#C82930;stroke-width:2.0;" width="12" x="509" y="162"/><text fill="#000000" font-family="sans-serif" font-size="22" lengthAdjust="spacing" textLength="258" x="533" y="175.2695">apiClient: HelloApiClient</text><line style="stroke:#A80036;stroke-width:3.0;" x1="495" x2="801" y1="187.9102" y2="187.9102"/><ellipse cx="515" cy="209.9102" fill="#84BE84" rx="6" ry="6" style="stroke:#038048;stroke-width:2.0;"/><text fill="#000000" font-family="sans-serif" font-size="22" lengthAdjust="spacing" textLength="230" x="533" y="217.1797">hello(): JsonResponse</text><!--MD5=[73a18346f13faf2a4c3b5edb886f5708]
class HelloApiClient--><rect codeLine="9" fill="#FEFECE" filter="url(#fvz6qbmnnnoqn)" height="173.7305" id="HelloApiClient" style="stroke:#A80036;stroke-width:3.0;" width="370" x="463" y="350"/><ellipse cx="559.5" cy="382" fill="#ADD1B2" rx="22" ry="22" style="stroke:#A80036;stroke-width:2.0;"/><path d="M564.4463,394.2861 Q563.2842,394.8838 562.0059,395.1826 Q560.7275,395.4814 559.3164,395.4814 Q554.3027,395.4814 551.6631,392.1777 Q549.0234,388.874 549.0234,382.6318 Q549.0234,376.373 551.6631,373.0693 Q554.3027,369.7656 559.3164,369.7656 Q560.7275,369.7656 562.0225,370.0645 Q563.3174,370.3633 564.4463,370.9609 L564.4463,376.4063 Q563.1846,375.2441 561.9976,374.7046 Q560.8105,374.165 559.5488,374.165 Q556.8594,374.165 555.4897,376.2983 Q554.1201,378.4316 554.1201,382.6318 Q554.1201,386.8154 555.4897,388.9487 Q556.8594,391.082 559.5488,391.082 Q560.8105,391.082 561.9976,390.5425 Q563.1846,390.0029 564.4463,388.8408 Z " fill="#000000"/><text fill="#000000" font-family="sans-serif" font-size="24" lengthAdjust="spacing" textLength="160" x="600.5" y="391.0703">HelloApiClient</text><line style="stroke:#A80036;stroke-width:3.0;" x1="465" x2="831" y1="414" y2="414"/><rect fill="none" height="12" style="stroke:#C82930;stroke-width:2.0;" width="12" x="479" y="430"/><text fill="#000000" font-family="sans-serif" font-size="22" lengthAdjust="spacing" textLength="252" x="503" y="443.2695">httpClient: GuzzleClient</text><rect fill="none" height="12" style="stroke:#C82930;stroke-width:2.0;" width="12" x="479" y="455.9102"/><text fill="#000000" font-family="sans-serif" font-size="22" lengthAdjust="spacing" textLength="318" x="503" y="469.1797">tokenProvider: TokenProvider</text><line style="stroke:#A80036;stroke-width:3.0;" x1="465" x2="831" y1="481.8203" y2="481.8203"/><ellipse cx="485" cy="503.8203" fill="#84BE84" rx="6" ry="6" style="stroke:#038048;stroke-width:2.0;"/><text fill="#000000" font-family="sans-serif" font-size="22" lengthAdjust="spacing" textLength="144" x="503" y="511.0898">hello(): string</text><!--MD5=[d7c02f009fa46f1d511e14f94cf9090c]
class TokenProvider--><rect codeLine="15" fill="#FEFECE" filter="url(#fvz6qbmnnnoqn)" height="147.8203" id="TokenProvider" style="stroke:#A80036;stroke-width:3.0;" width="454" x="401" y="644"/><ellipse cx="535.5" cy="676" fill="#B4A7E5" rx="22" ry="22" style="stroke:#A80036;stroke-width:2.0;"/><path d="M528.3555,668.5303 L528.3555,664.2139 L543.1143,664.2139 L543.1143,668.5303 L538.1836,668.5303 L538.1836,684.6836 L543.1143,684.6836 L543.1143,689 L528.3555,689 L528.3555,684.6836 L533.2861,684.6836 L533.2861,668.5303 Z " fill="#000000"/><text fill="#000000" font-family="sans-serif" font-size="24" font-style="italic" lengthAdjust="spacing" textLength="168" x="576.5" y="685.0703">TokenProvider</text><line style="stroke:#A80036;stroke-width:3.0;" x1="403" x2="853" y1="708" y2="708"/><line style="stroke:#A80036;stroke-width:3.0;" x1="403" x2="853" y1="724" y2="724"/><ellipse cx="423" cy="746" fill="#84BE84" rx="6" ry="6" style="stroke:#038048;stroke-width:2.0;"/><text fill="#000000" font-family="sans-serif" font-size="22" lengthAdjust="spacing" textLength="192" x="441" y="753.2695">getToken(): string</text><ellipse cx="423" cy="771.9102" fill="#84BE84" rx="6" ry="6" style="stroke:#038048;stroke-width:2.0;"/><text fill="#000000" font-family="sans-serif" font-size="22" lengthAdjust="spacing" textLength="402" x="441" y="779.1797">getTokenResponse(): TokenResponse</text><!--MD5=[39bd07044fa29e5879bc49639014b4dc]
class UaaTokenProvider--><rect codeLine="20" fill="#FEFECE" filter="url(#fvz6qbmnnnoqn)" height="173.7305" id="UaaTokenProvider" style="stroke:#A80036;stroke-width:3.0;" width="446" x="237" y="912"/><ellipse cx="345.5" cy="944" fill="#ADD1B2" rx="22" ry="22" style="stroke:#A80036;stroke-width:2.0;"/><path d="M350.4463,956.2861 Q349.2842,956.8838 348.0059,957.1826 Q346.7275,957.4814 345.3164,957.4814 Q340.3027,957.4814 337.6631,954.1777 Q335.0234,950.874 335.0234,944.6318 Q335.0234,938.373 337.6631,935.0693 Q340.3027,931.7656 345.3164,931.7656 Q346.7275,931.7656 348.0225,932.0645 Q349.3174,932.3633 350.4463,932.9609 L350.4463,938.4063 Q349.1846,937.2441 347.9976,936.7046 Q346.8105,936.165 345.5488,936.165 Q342.8594,936.165 341.4897,938.2983 Q340.1201,940.4316 340.1201,944.6318 Q340.1201,948.8154 341.4897,950.9487 Q342.8594,953.082 345.5488,953.082 Q346.8105,953.082 347.9976,952.5425 Q349.1846,952.0029 350.4463,950.8408 Z " fill="#000000"/><text fill="#000000" font-family="sans-serif" font-size="24" lengthAdjust="spacing" textLength="212" x="386.5" y="953.0703">UaaTokenProvider</text><line style="stroke:#A80036;stroke-width:3.0;" x1="239" x2="681" y1="976" y2="976"/><rect fill="none" height="12" style="stroke:#C82930;stroke-width:2.0;" width="12" x="253" y="992"/><text fill="#000000" font-family="sans-serif" font-size="22" lengthAdjust="spacing" textLength="252" x="277" y="1005.2695">httpClient: GuzzleClient</text><rect fill="none" height="12" style="stroke:#C82930;stroke-width:2.0;" width="12" x="253" y="1017.9102"/><text fill="#000000" font-family="sans-serif" font-size="22" lengthAdjust="spacing" textLength="160" x="277" y="1031.1797">config: string[]</text><rect fill="none" height="12" style="stroke:#C82930;stroke-width:2.0;" width="12" x="253" y="1043.8203"/><text fill="#000000" font-family="sans-serif" font-size="22" lengthAdjust="spacing" textLength="394" x="277" y="1057.0898">tokenKeyProvider: TokenKeyProvider</text><line style="stroke:#A80036;stroke-width:3.0;" x1="239" x2="681" y1="1069.7305" y2="1069.7305"/><!--MD5=[c35c4c1da225d98fed04078687fbe486]
class TokenResponse--><rect codeLine="26" fill="#FEFECE" filter="url(#fvz6qbmnnnoqn)" height="225.5508" id="TokenResponse" style="stroke:#A80036;stroke-width:3.0;" width="790" x="65" y="1206"/><ellipse cx="359.5" cy="1238" fill="#ADD1B2" rx="22" ry="22" style="stroke:#A80036;stroke-width:2.0;"/><path d="M364.4463,1250.2861 Q363.2842,1250.8838 362.0059,1251.1826 Q360.7275,1251.4814 359.3164,1251.4814 Q354.3027,1251.4814 351.6631,1248.1777 Q349.0234,1244.874 349.0234,1238.6318 Q349.0234,1232.373 351.6631,1229.0693 Q354.3027,1225.7656 359.3164,1225.7656 Q360.7275,1225.7656 362.0225,1226.0645 Q363.3174,1226.3633 364.4463,1226.9609 L364.4463,1232.4063 Q363.1846,1231.2441 361.9976,1230.7046 Q360.8105,1230.165 359.5488,1230.165 Q356.8594,1230.165 355.4897,1232.2983 Q354.1201,1234.4316 354.1201,1238.6318 Q354.1201,1242.8154 355.4897,1244.9487 Q356.8594,1247.082 359.5488,1247.082 Q360.8105,1247.082 361.9976,1246.5425 Q363.1846,1246.0029 364.4463,1244.8408 Z " fill="#000000"/><text fill="#000000" font-family="sans-serif" font-size="24" lengthAdjust="spacing" textLength="184" x="400.5" y="1247.0703">TokenResponse</text><line style="stroke:#A80036;stroke-width:3.0;" x1="67" x2="853" y1="1270" y2="1270"/><rect fill="none" height="12" style="stroke:#C82930;stroke-width:2.0;" width="12" x="81" y="1286"/><text fill="#000000" font-family="sans-serif" font-size="22" lengthAdjust="spacing" textLength="188" x="105" y="1299.2695">tokenType: string</text><rect fill="none" height="12" style="stroke:#C82930;stroke-width:2.0;" width="12" x="81" y="1311.9102"/><text fill="#000000" font-family="sans-serif" font-size="22" lengthAdjust="spacing" textLength="216" x="105" y="1325.1797">accessToken: Token</text><rect fill="none" height="12" style="stroke:#C82930;stroke-width:2.0;" width="12" x="81" y="1337.8203"/><text fill="#000000" font-family="sans-serif" font-size="22" lengthAdjust="spacing" textLength="222" x="105" y="1351.0898">refreshToken: Token</text><rect fill="none" height="12" style="stroke:#C82930;stroke-width:2.0;" width="12" x="81" y="1363.7305"/><text fill="#000000" font-family="sans-serif" font-size="22" lengthAdjust="spacing" textLength="192" x="105" y="1377">expiresIn: Carbon</text><line style="stroke:#A80036;stroke-width:3.0;" x1="67" x2="853" y1="1389.6406" y2="1389.6406"/><ellipse cx="87" cy="1411.6406" fill="#84BE84" rx="6" ry="6" style="stroke:#038048;stroke-width:2.0;"/><text fill="#000000" font-family="sans-serif" font-size="22" lengthAdjust="spacing" text-decoration="underline" textLength="738" x="105" y="1418.9102">fromJsonString(jsonString: string, publicKey: string): TokenResponse</text><!--MD5=[d8c8cfd5ca149094f5b67f9f607a5ec7]
class Token--><rect codeLine="34" fill="#FEFECE" filter="url(#fvz6qbmnnnoqn)" height="225.5508" id="Token" style="stroke:#A80036;stroke-width:3.0;" width="706" x="107" y="1552"/><ellipse cx="415.5" cy="1584" fill="#ADD1B2" rx="22" ry="22" style="stroke:#A80036;stroke-width:2.0;"/><path d="M420.4463,1596.2861 Q419.2842,1596.8838 418.0059,1597.1826 Q416.7275,1597.4814 415.3164,1597.4814 Q410.3027,1597.4814 407.6631,1594.1777 Q405.0234,1590.874 405.0234,1584.6318 Q405.0234,1578.373 407.6631,1575.0693 Q410.3027,1571.7656 415.3164,1571.7656 Q416.7275,1571.7656 418.0225,1572.0645 Q419.3174,1572.3633 420.4463,1572.9609 L420.4463,1578.4063 Q419.1846,1577.2441 417.9976,1576.7046 Q416.8105,1576.165 415.5488,1576.165 Q412.8594,1576.165 411.4897,1578.2983 Q410.1201,1580.4316 410.1201,1584.6318 Q410.1201,1588.8154 411.4897,1590.9487 Q412.8594,1593.082 415.5488,1593.082 Q416.8105,1593.082 417.9976,1592.5425 Q419.1846,1592.0029 420.4463,1590.8408 Z " fill="#000000"/><text fill="#000000" font-family="sans-serif" font-size="24" lengthAdjust="spacing" textLength="72" x="456.5" y="1593.0703">Token</text><line style="stroke:#A80036;stroke-width:3.0;" x1="109" x2="811" y1="1616" y2="1616"/><rect fill="none" height="12" style="stroke:#C82930;stroke-width:2.0;" width="12" x="123" y="1632"/><text fill="#000000" font-family="sans-serif" font-size="22" lengthAdjust="spacing" textLength="118" x="147" y="1645.2695">iat: Carbon</text><rect fill="none" height="12" style="stroke:#C82930;stroke-width:2.0;" width="12" x="123" y="1657.9102"/><text fill="#000000" font-family="sans-serif" font-size="22" lengthAdjust="spacing" textLength="132" x="147" y="1671.1797">exp: Carbon</text><rect fill="none" height="12" style="stroke:#C82930;stroke-width:2.0;" width="12" x="123" y="1683.8203"/><text fill="#000000" font-family="sans-serif" font-size="22" lengthAdjust="spacing" textLength="112" x="147" y="1697.0898">jti: Carbon</text><rect fill="none" height="12" style="stroke:#C82930;stroke-width:2.0;" width="12" x="123" y="1709.7305"/><text fill="#000000" font-family="sans-serif" font-size="22" lengthAdjust="spacing" textLength="268" x="147" y="1723">userName: UUIDInterface</text><line style="stroke:#A80036;stroke-width:3.0;" x1="109" x2="811" y1="1735.6406" y2="1735.6406"/><ellipse cx="129" cy="1757.6406" fill="#84BE84" rx="6" ry="6" style="stroke:#038048;stroke-width:2.0;"/><text fill="#000000" font-family="sans-serif" font-size="22" lengthAdjust="spacing" text-decoration="underline" textLength="654" x="147" y="1764.9102">fromTokenString(jsonString: string, publicKey: string): Token</text><!--MD5=[3fd616f346a44cd59a91eb10b19e157c]
class User--><rect codeLine="45" fill="#FEFECE" filter="url(#fvz6qbmnnnoqn)" height="108.5313" id="User" style="stroke:#A80036;stroke-width:3.0;" width="240" x="968" y="945"/><ellipse cx="998" cy="983.2656" fill="#ADD1B2" rx="22" ry="22" style="stroke:#A80036;stroke-width:2.0;"/><path d="M1002.9463,995.5518 Q1001.7842,996.1494 1000.5059,996.4482 Q999.2275,996.7471 997.8164,996.7471 Q992.8027,996.7471 990.1631,993.4434 Q987.5234,990.1396 987.5234,983.8975 Q987.5234,977.6387 990.1631,974.335 Q992.8027,971.0313 997.8164,971.0313 Q999.2275,971.0313 1000.5225,971.3301 Q1001.8174,971.6289 1002.9463,972.2266 L1002.9463,977.6719 Q1001.6846,976.5098 1000.4976,975.9702 Q999.3105,975.4307 998.0488,975.4307 Q995.3594,975.4307 993.9897,977.564 Q992.6201,979.6973 992.6201,983.8975 Q992.6201,988.0811 993.9897,990.2144 Q995.3594,992.3477 998.0488,992.3477 Q999.3105,992.3477 1000.4976,991.8081 Q1001.6846,991.2686 1002.9463,990.1064 Z " fill="#000000"/><text fill="#000000" font-family="sans-serif" font-size="24" font-style="italic" lengthAdjust="spacing" textLength="184" x="1022" y="978.2031">«auth endpoint»</text><text fill="#000000" font-family="sans-serif" font-size="24" lengthAdjust="spacing" textLength="52" x="1088" y="1006.4688">User</text><line style="stroke:#A80036;stroke-width:3.0;" x1="970" x2="1206" y1="1021.5313" y2="1021.5313"/><line style="stroke:#A80036;stroke-width:3.0;" x1="970" x2="1206" y1="1037.5313" y2="1037.5313"/><!--MD5=[f9acffdcd4b442177af46c634f706455]
class Hello--><rect codeLine="49" fill="#FEFECE" filter="url(#fvz6qbmnnnoqn)" height="108.5313" id="Hello" style="stroke:#A80036;stroke-width:3.0;" width="290" x="969" y="383"/><ellipse cx="999" cy="421.2656" fill="#ADD1B2" rx="22" ry="22" style="stroke:#A80036;stroke-width:2.0;"/><path d="M1003.9463,433.5518 Q1002.7842,434.1494 1001.5059,434.4482 Q1000.2275,434.7471 998.8164,434.7471 Q993.8027,434.7471 991.1631,431.4434 Q988.5234,428.1396 988.5234,421.8975 Q988.5234,415.6387 991.1631,412.335 Q993.8027,409.0313 998.8164,409.0313 Q1000.2275,409.0313 1001.5225,409.3301 Q1002.8174,409.6289 1003.9463,410.2266 L1003.9463,415.6719 Q1002.6846,414.5098 1001.4976,413.9702 Q1000.3105,413.4307 999.0488,413.4307 Q996.3594,413.4307 994.9897,415.564 Q993.6201,417.6973 993.6201,421.8975 Q993.6201,426.0811 994.9897,428.2144 Q996.3594,430.3477 999.0488,430.3477 Q1000.3105,430.3477 1001.4976,429.8081 Q1002.6846,429.2686 1003.9463,428.1064 Z " fill="#000000"/><text fill="#000000" font-family="sans-serif" font-size="24" font-style="italic" lengthAdjust="spacing" textLength="234" x="1023" y="416.2031">«resource endpoint»</text><text fill="#000000" font-family="sans-serif" font-size="24" lengthAdjust="spacing" textLength="58" x="1111" y="444.4688">Hello</text><line style="stroke:#A80036;stroke-width:3.0;" x1="971" x2="1257" y1="459.5313" y2="459.5313"/><line style="stroke:#A80036;stroke-width:3.0;" x1="971" x2="1257" y1="475.5313" y2="475.5313"/><!--MD5=[b080dddba72ee2caaaa66fec21518ef0]
reverse link TokenProvider to UaaTokenProvider--><path d="M563.48,826.36 C546.4,854.54 528.16,884.6 511.84,911.52 " fill="none" id="TokenProvider-backto-UaaTokenProvider" style="stroke:#A80036;stroke-width:2.0;stroke-dasharray:7.0,7.0;"/><polygon fill="none" points="551.58,819,584.3,792.06,575.52,833.52,551.58,819" style="stroke:#A80036;stroke-width:2.0;"/><!--MD5=[6bbbe689a2477afb178fe189694ca774]
link HelloController to HelloApiClient--><path codeLine="52" d="M648,230.06 C648,263.18 648,302.94 648,338.6 " fill="none" id="HelloController-to-HelloApiClient" style="stroke:#A80036;stroke-width:2.0;"/><polygon fill="#A80036" points="648,349.52,656,331.52,648,339.52,640,331.52,648,349.52" style="stroke:#A80036;stroke-width:2.0;"/><!--MD5=[f633df6a35f4195c55dc3fe999f8282c]
link HelloApiClient to TokenProvider--><path codeLine="53" d="M641.84,524.36 C639.34,558.94 636.46,598.72 633.98,633.04 " fill="none" id="HelloApiClient-to-TokenProvider" style="stroke:#A80036;stroke-width:2.0;"/><polygon fill="#A80036" points="633.24,643.52,642.5552,626.1641,633.9829,633.5476,626.5994,624.9754,633.24,643.52" style="stroke:#A80036;stroke-width:2.0;"/><!--MD5=[49810be44206d37be0198b53e7bbe5b9]
link HelloApiClient to Hello--><path codeLine="54" d="M833.68,437 C875.4,437 917.14,437 958.88,437 " fill="none" id="HelloApiClient-to-Hello" style="stroke:#A80036;stroke-width:2.0;"/><polygon fill="#A80036" points="968.9,437,950.9,429,958.9,437,950.9,445,968.9,437" style="stroke:#A80036;stroke-width:2.0;"/><!--MD5=[4089fa2af81fef74eacaef25d219e076]
link UaaTokenProvider to User--><path codeLine="55" d="M683.24,999 C774.76,999 866.3,999 957.82,999 " fill="none" id="UaaTokenProvider-to-User" style="stroke:#A80036;stroke-width:2.0;"/><polygon fill="#A80036" points="967.84,999,949.84,991,957.84,999,949.84,1007,967.84,999" style="stroke:#A80036;stroke-width:2.0;"/><!--MD5=[bf4132df173cabdea962eba0ed4e9443]
link TokenProvider to TokenResponse--><path codeLine="56" d="M686.02,792.56 C699.12,812.92 711.16,835.84 718,859 C748.48,962.14 763.5,1003.54 718,1101 C700.8,1137.84 673.88,1170.62 643.8,1198.82 " fill="none" id="TokenProvider-to-TokenResponse" style="stroke:#A80036;stroke-width:2.0;"/><polygon fill="#A80036" points="636.08,1205.88,654.748,1199.5945,643.4444,1199.115,643.924,1187.8115,636.08,1205.88" style="stroke:#A80036;stroke-width:2.0;"/><!--MD5=[df3345d02c348e948540be680bc0140f]
link UaaTokenProvider to TokenResponse--><path codeLine="57" d="M460,1086.52 C460,1120.1 460,1159.26 460,1195.66 " fill="none" id="UaaTokenProvider-to-TokenResponse" style="stroke:#A80036;stroke-width:2.0;"/><polygon fill="#A80036" points="460,1205.86,468,1187.86,460,1195.86,452,1187.86,460,1205.86" style="stroke:#A80036;stroke-width:2.0;"/><!--MD5=[8e11137f75226a5184d770b5c5670acb]
link TokenResponse to Token--><path codeLine="58" d="M460,1432.04 C460,1467.16 460,1506.14 460,1541.94 " fill="none" id="TokenResponse-to-Token" style="stroke:#A80036;stroke-width:2.0;"/><polygon fill="#A80036" points="460,1551.94,468,1533.94,460,1541.94,452,1533.94,460,1551.94" style="stroke:#A80036;stroke-width:2.0;"/><!--MD5=[9873158b75143aba46afa977a9e59024]
@startuml

package Laravel {

  class HelloController {
    - apiClient: HelloApiClient
    + hello(): JsonResponse
  }

  class HelloApiClient {
    - httpClient: GuzzleClient
    - tokenProvider: TokenProvider
    + hello(): string
  }

  interface TokenProvider {
    + getToken(): string
    + getTokenResponse(): TokenResponse
  }

  class UaaTokenProvider implements TokenProvider {
    - httpClient: GuzzleClient
    - config: string[]
    - tokenKeyProvider: TokenKeyProvider
  }

  class TokenResponse {
    - tokenType: string
    - accessToken: Token
    - refreshToken: Token
    - expiresIn: Carbon
    + {static} fromJsonString(jsonString: string, publicKey: string): TokenResponse
  }

  class Token {
    - iat: Carbon
    - exp: Carbon
    - jti: Carbon
    - userName: UUIDInterface
    + {static} fromTokenString(jsonString: string, publicKey: string): Token
  }

}

package UAA {
  class User <<auth endpoint>> {}
}

package Spring {
  class Hello <<resource endpoint>>{}
}

HelloController - -> HelloApiClient
HelloApiClient - -> TokenProvider
HelloApiClient -> Hello
UaaTokenProvider -> User
TokenProvider - -> TokenResponse
UaaTokenProvider - -> TokenResponse
TokenResponse - -> Token

@enduml

PlantUML version 1.2021.01(Tue Feb 02 16:55:08 KST 2021)
(GPL source distribution)
Java Runtime: OpenJDK Runtime Environment
JVM: OpenJDK 64-Bit Server VM
Default Encoding: UTF-8
Language: ko
Country: KR
--></g></svg>