<?xml version="1.0" encoding="UTF-8" standalone="no"?><svg xmlns="http://www.w3.org/2000/svg" xmlns:xlink="http://www.w3.org/1999/xlink" contentScriptType="application/ecmascript" contentStyleType="text/css" height="809px" preserveAspectRatio="none" style="width:500px;height:809px;" version="1.1" viewBox="0 0 500 809" width="500px" zoomAndPan="magnify"><defs><filter height="300%" id="f60ed471dgb1k" width="300%" x="-1" y="-1"><feGaussianBlur result="blurOut" stdDeviation="2.0"/><feColorMatrix in="blurOut" result="blurOut2" type="matrix" values="0 0 0 0 0 0 0 0 0 0 0 0 0 0 0 0 0 0 .4 0"/><feOffset dx="4.0" dy="4.0" in="blurOut2" result="blurOut3"/><feBlend in="SourceGraphic" in2="blurOut3" mode="normal"/></filter><filter height="1" id="b60ed471dgb1k0" width="1" x="0" y="0"><feFlood flood-color="#0000FF" result="flood"/><feComposite in="SourceGraphic" in2="flood" operator="over"/></filter><filter height="1" id="b60ed471dgb1k1" width="1" x="0" y="0"><feFlood flood-color="#008000" result="flood"/><feComposite in="SourceGraphic" in2="flood" operator="over"/></filter></defs><g><!--MD5=[17be2db854a9b4c9c7f1d0e874109bc4]
cluster UAA--><polygon fill="#FFFFFF" filter="url(#f60ed471dgb1k)" points="106.1762,652,145.1762,652,152.1762,674.2969,238.1762,674.2969,238.1762,733,106.1762,733,106.1762,652" style="stroke:#000000;stroke-width:1.5;"/><line style="stroke:#000000;stroke-width:1.5;" x1="106.1762" x2="152.1762" y1="674.2969" y2="674.2969"/><text fill="#000000" font-family="sans-serif" font-size="14" font-weight="bold" lengthAdjust="spacingAndGlyphs" textLength="33" x="110.1762" y="666.9951">UAA</text><!--MD5=[694f54aa890631db6f50c9283d3664df]
cluster Laravel--><polygon fill="#FFFFFF" filter="url(#f60ed471dgb1k)" points="114.1762,204,177.1762,204,184.1762,226.2969,448.1762,226.2969,448.1762,285,114.1762,285,114.1762,204" style="stroke:#000000;stroke-width:1.5;"/><line style="stroke:#000000;stroke-width:1.5;" x1="114.1762" x2="184.1762" y1="226.2969" y2="226.2969"/><text fill="#000000" font-family="sans-serif" font-size="14" font-weight="bold" lengthAdjust="spacingAndGlyphs" textLength="57" x="118.1762" y="218.9951">Laravel</text><!--MD5=[3ed2d37569a438542c9eab5b27371965]
cluster Spring--><polygon fill="#FFFFFF" filter="url(#f60ed471dgb1k)" points="28.1762,428,85.1762,428,92.1762,450.2969,348.1762,450.2969,348.1762,509,28.1762,509,28.1762,428" style="stroke:#000000;stroke-width:1.5;"/><line style="stroke:#000000;stroke-width:1.5;" x1="28.1762" x2="92.1762" y1="450.2969" y2="450.2969"/><text fill="#000000" font-family="sans-serif" font-size="14" font-weight="bold" lengthAdjust="spacingAndGlyphs" textLength="51" x="32.1762" y="442.9951">Spring</text><!--MD5=[2f48215cabdd3fc43dfe3eed9a5faf06]
entity User/Client--><rect fill="#FEFECE" filter="url(#f60ed471dgb1k)" height="46.2969" style="stroke:#A80036;stroke-width:1.5;" width="116" x="114.1762" y="679"/><rect fill="#FEFECE" height="10" style="stroke:#A80036;stroke-width:1.5;" width="15" x="210.1762" y="684"/><rect fill="#FEFECE" height="2" style="stroke:#A80036;stroke-width:1.5;" width="4" x="208.1762" y="686"/><rect fill="#FEFECE" height="2" style="stroke:#A80036;stroke-width:1.5;" width="4" x="208.1762" y="690"/><text fill="#000000" font-family="sans-serif" font-size="14" lengthAdjust="spacingAndGlyphs" textLength="76" x="129.1762" y="711.9951">User/Client</text><!--MD5=[610a9471c5ffdfec62c31ed0d3c9a0a4]
entity Example Domain--><rect fill="#FEFECE" filter="url(#f60ed471dgb1k)" height="46.2969" style="stroke:#A80036;stroke-width:1.5;" width="155" x="284.6762" y="231"/><rect fill="#FEFECE" height="10" style="stroke:#A80036;stroke-width:1.5;" width="15" x="419.6762" y="236"/><rect fill="#FEFECE" height="2" style="stroke:#A80036;stroke-width:1.5;" width="4" x="417.6762" y="238"/><rect fill="#FEFECE" height="2" style="stroke:#A80036;stroke-width:1.5;" width="4" x="417.6762" y="242"/><text fill="#000000" font-family="sans-serif" font-size="14" lengthAdjust="spacingAndGlyphs" textLength="115" x="299.6762" y="263.9951">Example Domain</text><!--MD5=[2975042fe41fbf5b570cbe7f6ed38024]
entity GuzzleClient--><rect fill="#FEFECE" filter="url(#f60ed471dgb1k)" height="46.2969" style="stroke:#A80036;stroke-width:1.5;" width="127" x="122.6762" y="231"/><rect fill="#FEFECE" height="10" style="stroke:#A80036;stroke-width:1.5;" width="15" x="229.6762" y="236"/><rect fill="#FEFECE" height="2" style="stroke:#A80036;stroke-width:1.5;" width="4" x="227.6762" y="238"/><rect fill="#FEFECE" height="2" style="stroke:#A80036;stroke-width:1.5;" width="4" x="227.6762" y="242"/><text fill="#000000" font-family="sans-serif" font-size="14" lengthAdjust="spacingAndGlyphs" textLength="87" x="137.6762" y="263.9951">GuzzleClient</text><!--MD5=[0a7194d700ffccf477e548114c070a9f]
entity Hello Domain--><rect fill="#FEFECE" filter="url(#f60ed471dgb1k)" height="46.2969" style="stroke:#A80036;stroke-width:1.5;" width="131" x="208.6762" y="455"/><rect fill="#FEFECE" height="10" style="stroke:#A80036;stroke-width:1.5;" width="15" x="319.6762" y="460"/><rect fill="#FEFECE" height="2" style="stroke:#A80036;stroke-width:1.5;" width="4" x="317.6762" y="462"/><rect fill="#FEFECE" height="2" style="stroke:#A80036;stroke-width:1.5;" width="4" x="317.6762" y="466"/><text fill="#000000" font-family="sans-serif" font-size="14" lengthAdjust="spacingAndGlyphs" textLength="91" x="223.6762" y="487.9951">Hello Domain</text><!--MD5=[e162a042fc0e95f3600b8b15580ef1fb]
entity RestTemplate--><rect fill="#FEFECE" filter="url(#f60ed471dgb1k)" height="46.2969" style="stroke:#A80036;stroke-width:1.5;" width="137" x="36.6762" y="455"/><rect fill="#FEFECE" height="10" style="stroke:#A80036;stroke-width:1.5;" width="15" x="153.6762" y="460"/><rect fill="#FEFECE" height="2" style="stroke:#A80036;stroke-width:1.5;" width="4" x="151.6762" y="462"/><rect fill="#FEFECE" height="2" style="stroke:#A80036;stroke-width:1.5;" width="4" x="151.6762" y="466"/><text fill="#000000" font-family="sans-serif" font-size="14" lengthAdjust="spacingAndGlyphs" textLength="97" x="51.6762" y="487.9951">RestTemplate</text><!--MD5=[0ba5ee7700168656dc1b457c6fe9fdac]
entity Client--><rect fill="#FEFECE" filter="url(#f60ed471dgb1k)" height="46.2969" style="stroke:#A80036;stroke-width:1.5;" width="79" x="388.6762" y="7"/><rect fill="#FEFECE" height="10" style="stroke:#A80036;stroke-width:1.5;" width="15" x="447.6762" y="12"/><rect fill="#FEFECE" height="2" style="stroke:#A80036;stroke-width:1.5;" width="4" x="445.6762" y="14"/><rect fill="#FEFECE" height="2" style="stroke:#A80036;stroke-width:1.5;" width="4" x="445.6762" y="18"/><text fill="#000000" font-family="sans-serif" font-size="14" lengthAdjust="spacingAndGlyphs" textLength="39" x="403.6762" y="39.9951">Client</text><!--MD5=[226068164dbe0f7b2e0bbd7aaafea119]
entity uaa1--><ellipse cx="316.1762" cy="590" fill="#FEFECE" filter="url(#f60ed471dgb1k)" rx="8" ry="8" style="stroke:#A80036;stroke-width:1.5;"/><text fill="#000000" font-family="sans-serif" font-size="14" lengthAdjust="spacingAndGlyphs" textLength="118" x="257.1762" y="619.9951">OAuth2 endpoint</text><!--MD5=[e00dd843ffa474fd0dfe9229d41bf118]
entity uaa2--><ellipse cx="105.1762" cy="590" fill="#FEFECE" filter="url(#f60ed471dgb1k)" rx="8" ry="8" style="stroke:#A80036;stroke-width:1.5;"/><text fill="#000000" font-family="sans-serif" font-size="14" lengthAdjust="spacingAndGlyphs" textLength="49" x="80.6762" y="619.9951">UAAAPI</text><!--MD5=[41a572af8013b4746e6abfe79a985c60]
entity ExampleAPI--><ellipse cx="378.1762" cy="142" fill="#FEFECE" filter="url(#f60ed471dgb1k)" rx="8" ry="8" style="stroke:#A80036;stroke-width:1.5;"/><text fill="#000000" font-family="sans-serif" font-size="14" lengthAdjust="spacingAndGlyphs" textLength="79" x="338.6762" y="171.9951">ExampleAPI</text><!--MD5=[f913d3c4b29b564099cfd205d5da28c9]
entity Domain2API--><ellipse cx="244.1762" cy="366" fill="#FEFECE" filter="url(#f60ed471dgb1k)" rx="8" ry="8" style="stroke:#A80036;stroke-width:1.5;"/><text fill="#000000" font-family="sans-serif" font-size="14" lengthAdjust="spacingAndGlyphs" textLength="83" x="202.6762" y="395.9951">Domain2API</text><!--MD5=[e9cacf3a2fb4cf48f043f6228eeb6c4f]
link uaa1 to User/Client--><path d="M307.1684,597.0061 C286.5416,613.0492 235.1162,653.0467 202.0254,678.784 " fill="none" id="uaa1-User/Client" style="stroke:#A80036;stroke-width:1.0;"/><!--MD5=[c580f96f1db5e8ccc7438fd3b7058bc5]
link uaa2 to User/Client--><path d="M110.6591,599.1654 C120.9726,616.4059 143.5469,654.1419 158.2925,678.7914 " fill="none" id="uaa2-User/Client" style="stroke:#A80036;stroke-width:1.0;"/><!--MD5=[9afe564087d82725ffb64d779aa5bfc4]
link ExampleAPI to Example Domain--><path d="M376.8669,151.1654 C374.404,168.4059 369.0131,206.1419 365.4918,230.7914 " fill="none" id="ExampleAPI-Example Domain" style="stroke:#A80036;stroke-width:1.0;"/><!--MD5=[b8550a4ae02f3af7cacc6a2919f25306]
link Domain2API to Hello Domain--><path d="M246.6313,375.1654 C251.2493,392.4059 261.3571,430.1419 267.9597,454.7914 " fill="none" id="Domain2API-Hello Domain" style="stroke:#A80036;stroke-width:1.0;"/><!--MD5=[c8494087ec6739de7b1e5d87c3471c56]
link Client to uaa1--><path d="M439.6473,53.2229 C458.3075,93.2055 493.1762,178.0754 493.1762,254 C493.1762,254 493.1762,254 493.1762,366 C493.1762,471.4724 370.8747,556.3749 329.5969,582.0267 " fill="none" id="Client-to-uaa1" style="stroke:#0000FF;stroke-width:1.0;"/><polygon fill="#0000FF" points="325.197,584.7263,334.9601,583.4291,329.4588,582.1115,330.7764,576.6102,325.197,584.7263" style="stroke:#0000FF;stroke-width:1.0;"/><!--MD5=[8ec8efb02a922b2f0b48d71a15020a31]
link Client to ExampleAPI--><path d="M417.8162,53.2065 C407.7762,75.6962 392.8722,109.0811 384.4918,127.8533 " fill="none" id="Client-to-ExampleAPI" style="stroke:#008000;stroke-width:1.0;"/><polygon fill="#008000" points="382.3105,132.7393,389.6319,126.1517,384.3488,128.1736,382.3268,122.8905,382.3105,132.7393" style="stroke:#008000;stroke-width:1.0;"/><!--MD5=[599c87c89d57b3a3cbe1b3d57eaa530a]
link GuzzleClient to Domain2API--><path d="M198.1939,277.2065 C209.8403,299.6962 227.1289,333.0811 236.8503,351.8533 " fill="none" id="GuzzleClient-to-Domain2API" style="stroke:#008000;stroke-width:1.0;"/><polygon fill="#008000" points="239.3805,356.7393,238.7935,346.9079,237.0811,352.2994,231.6897,350.587,239.3805,356.7393" style="stroke:#008000;stroke-width:1.0;"/><!--MD5=[9952ae904fd8b8972f9320069382649b]
link GuzzleClient to uaa1--><path d="M232.7543,277.0719 C258.379,291.5492 289.3134,312.1703 311.1762,337 C340.9931,370.8631 345.9067,384.0649 356.1762,428 C364.3702,463.0551 364.3606,473.9427 356.1762,509 C350.2952,534.191 335.3881,560.5451 325.5269,576.1066 " fill="none" id="GuzzleClient-to-uaa1" style="stroke:#0000FF;stroke-width:1.0;"/><polygon fill="#0000FF" points="322.6441,580.5763,330.8838,575.1811,325.3542,576.3745,324.1609,570.8449,322.6441,580.5763" style="stroke:#0000FF;stroke-width:1.0;"/><!--MD5=[879be919b177e920aafd7f2d70016f2e]
link GuzzleClient to uaa2--><path d="M151.8514,277.1488 C111.4883,306.677 46.642,361.9181 20.1762,428 C6.7918,461.4194 6,475.9087 20.1762,509 C34.7415,542.9995 71.363,569.4956 91.4561,582.0438 " fill="none" id="GuzzleClient-to-uaa2" style="stroke:#008000;stroke-width:1.0;"/><polygon fill="#008000" points="95.9501,584.7894,90.3556,576.6838,91.6834,582.1826,86.1846,583.5104,95.9501,584.7894" style="stroke:#008000;stroke-width:1.0;"/><!--MD5=[4588f6efcb786a1834bfcc9e52c4dcda]
link RestTemplate to uaa1--><path d="M148.6397,501.0707 C196.7353,526.6001 271.5093,566.2906 302.2545,582.6103 " fill="none" id="RestTemplate-to-uaa1" style="stroke:#0000FF;stroke-width:1.0;"/><polygon fill="#0000FF" points="306.8001,585.0231,300.726,577.2703,302.3837,582.6788,296.9752,584.3365,306.8001,585.0231" style="stroke:#0000FF;stroke-width:1.0;"/><!--MD5=[e8e23d859fe4ecacb2c8022b09d5a7bf]
link RestTemplate to uaa2--><path d="M105.1762,501.2065 C105.1762,523.504 105.1762,556.5112 105.1762,575.3687 " fill="none" id="RestTemplate-to-uaa2" style="stroke:#008000;stroke-width:1.0;"/><polygon fill="#008000" points="105.1762,580.7393,109.1762,571.7393,105.1762,575.7393,101.1762,571.7393,105.1762,580.7393" style="stroke:#008000;stroke-width:1.0;"/><rect fill="#DDDDDD" height="46.5938" rx="5" ry="5" style="stroke:#000000;stroke-width:1.0;" width="94" x="196.0881" y="747"/><text fill="#000000" filter="url(#b60ed471dgb1k0)" font-family="sans-serif" font-size="14" lengthAdjust="spacingAndGlyphs" textLength="22" x="206.0881" y="766.9951">--&gt;</text><text fill="#000000" font-family="sans-serif" font-size="14" lengthAdjust="spacingAndGlyphs" textLength="36" x="236.0881" y="766.9951">인증 요청</text><text fill="#000000" filter="url(#b60ed471dgb1k1)" font-family="sans-serif" font-size="14" lengthAdjust="spacingAndGlyphs" textLength="22" x="206.0881" y="783.292">--&gt;</text><text fill="#000000" font-family="sans-serif" font-size="14" lengthAdjust="spacingAndGlyphs" textLength="44" x="236.0881" y="783.292">리소스 요청</text><line style="stroke:#000000;stroke-width:1.0;" x1="202.0881" x2="284.0881" y1="754" y2="754"/><line style="stroke:#000000;stroke-width:1.0;" x1="202.0881" x2="284.0881" y1="770.2969" y2="770.2969"/><line style="stroke:#000000;stroke-width:1.0;" x1="202.0881" x2="284.0881" y1="786.5938" y2="786.5938"/><line style="stroke:#000000;stroke-width:1.0;" x1="202.0881" x2="202.0881" y1="754" y2="786.5938"/><line style="stroke:#000000;stroke-width:1.0;" x1="232.0881" x2="232.0881" y1="754" y2="786.5938"/><line style="stroke:#000000;stroke-width:1.0;" x1="284.0881" x2="284.0881" y1="754" y2="786.5938"/><!--MD5=[2cdfe8e2cfb08ddcbbd7cc241961af61]
@startuml
legend
|<back:#blue> - -> </back>| 인증 요청 |
|<back:#green> - -> </back>| 리소스 요청 |
endlegend

component [Client]

interface "OAuth2 endpoint" as uaa1
interface "UAAAPI" as uaa2

package UAA {
  component [User/Client]
  uaa1 - - [User/Client]
  uaa2 - - [User/Client]
}

interface ExampleAPI

package Laravel {
  component [Example Domain]
  component [GuzzleClient]
  ExampleAPI - - [Example Domain]
}

interface Domain2API

package Spring {
  component [Hello Domain]
  component [RestTemplate]
  Domain2API - - [Hello Domain]
}

Client - -> uaa1 #blue
Client - -> ExampleAPI #green

GuzzleClient - -> Domain2API #green

GuzzleClient - -> uaa1 #blue
GuzzleClient - -> uaa2 #green

RestTemplate - -> uaa1 #blue
RestTemplate - -> uaa2 #green
@enduml

PlantUML version 1.2020.22(Sun Dec 06 09:36:27 UTC 2020)
(GPL source distribution)
Java Runtime: OpenJDK Runtime Environment
JVM: OpenJDK 64-Bit Server VM
Default Encoding: UTF-8
Language: en
Country: US
--></g></svg>